<?xml version="1.0" encoding="UTF-8" standalone="no"?>
<svg xmlns="http://www.w3.org/2000/svg" xmlns:xlink="http://www.w3.org/1999/xlink" width="30.000mm" height="21.316mm" viewBox="94.999878 -80.657967 30.000275 21.315990">
    <path transform="matrix(1,0,0,-1,0,0)" style="stroke:none;fill:#000000;fill-rule:evenodd" d="M125.000153,59.341976L94.999878,59.341976L94.999878,80.657967L125.000153,80.657967L125.000153,59.341976zM124.21067,60.131458L124.21067,79.868484L95.789352,79.868484L95.789352,60.131458L124.21067,60.131458zM110.567757,64.578827L110.181038,64.578827L110.181038,64.194061L110.567757,64.194061L110.567757,64.578827zM112.055092,79.426643L111.571693,79.426643L111.571693,78.945686L112.055092,78.945686L112.055092,79.426643zM113.291878,62.170624L112.809456,62.170624L112.809456,61.688202L113.291878,61.688202L113.291878,62.170624zM109.207672,65.884094L109.24707,66.023903L109.310043,66.199402L109.386948,66.385643L109.468132,66.557671L109.591141,66.780334L109.734009,67.008255L109.892471,67.236061L110.062218,67.458397L110.238976,67.669891L110.418442,67.865166L110.596344,68.038864L110.768387,68.1856L110.903404,68.28788L110.976051,68.334824L110.987915,68.337044L110.982895,68.324829L110.920532,68.256325L110.847496,68.171135L110.786362,68.079491L110.748932,68.001701L110.742798,67.974342L110.747025,67.958061L110.761238,67.950989L110.784538,67.948608L110.85601,67.957481L110.956673,67.983711L111.081757,68.026314L111.27195,68.088409L111.476852,68.139778L111.685944,68.178146L111.888741,68.201225L112.19735,68.227417L112.434891,68.255005L112.613174,68.285629L112.744034,68.320961L112.873688,68.35849L112.963913,68.372505L113.026062,68.369766L112.971832,68.345131L112.845901,68.296036L112.681908,68.243233L112.505417,68.194351L112.342003,68.157028L111.893066,68.069008L111.749496,68.036682L111.604897,67.996132L111.459862,67.947739L111.314972,67.891861L111.17083,67.828857L111.028015,67.759109L110.887123,67.682976L110.748741,67.600822L110.613457,67.513016L110.481865,67.419922L110.354553,67.321915L110.232117,67.219345L110.115135,67.112595L110.004204,67.002014L109.899918,66.887985L109.802856,66.770866L109.690948,66.616867L109.576538,66.439644L109.473923,66.26252L109.397377,66.108841L109.320412,65.954887L109.252426,65.853424L109.22683,65.828331L109.209496,65.823486L109.202438,65.841286L109.207672,65.884094zM110.856819,61.881561L110.567757,61.881561L110.567757,63.809296L109.891975,63.809296L109.891975,63.615936L110.181038,63.615936L110.181038,61.881561L109.891975,61.881561L109.891975,61.688202L110.856819,61.688202L110.856819,61.881561zM115.135139,61.646698C115.287018,61.664726,115.435791,61.702988,115.577522,61.760468L115.577522,62.028046L115.445198,61.973846C115.181404,61.860928,114.879463,61.882751,114.634651,62.03244C114.433846,62.217243,114.328697,62.483444,114.349007,62.755585C114.322121,63.084236,114.465729,63.403721,114.729378,63.601776C114.925652,63.703236,115.162918,63.68132,115.337288,63.545624L115.360725,63.279999L115.577522,63.279999L115.577522,63.762421C115.240723,63.876461,114.876953,63.883453,114.536018,63.78244C114.143684,63.598843,113.90583,63.191399,113.93885,62.759491C113.906685,62.314304,114.157631,61.896648,114.565804,61.716034C114.747658,61.649071,114.942535,61.625336,115.135139,61.646698zM112.217171,61.881561L111.928108,61.881561L111.928108,64.772186L111.252327,64.772186L111.252327,64.578827L111.541389,64.578827L111.541389,61.881561L111.252327,61.881561L111.252327,61.688202L112.217171,61.688202L112.217171,61.881561zM112.41642,76.055061L112.055092,76.055061L112.055092,78.464729L111.210365,78.464729L111.210365,78.22303L111.571693,78.22303L111.571693,76.055061L111.210365,76.055061L111.210365,75.813362L112.41642,75.813362L112.41642,76.055061zM105.68058,75.77137L105.860756,75.828011L105.860756,76.099007L105.706947,76.042366C105.523209,75.969582,105.314659,76.057968,105.239174,76.240608C105.199799,76.348457,105.181244,76.462761,105.184486,76.577522L105.184486,78.193733L105.860756,78.193733L105.860756,78.464729L105.184486,78.464729L105.184486,79.065315L104.701088,78.945686L104.701088,78.464729L104.33976,78.464729L104.33976,78.193733L104.701088,78.193733L104.701088,76.640999C104.680763,76.400375,104.749397,76.160599,104.893959,75.967171C105.108879,75.777718,105.401924,75.704773,105.68058,75.77137zM120.384682,76.055061L120.023354,76.055061L120.023354,77.742073C120.178627,77.946846,120.412186,78.077774,120.667885,78.103401L120.74601,78.103401L120.74601,77.832405L121.046303,77.832405L121.046303,78.495491C120.680435,78.578568,120.302742,78.41861,120.107826,78.09803L120.023354,77.966682L120.023354,78.464729L119.178627,78.464729L119.178627,78.22303L119.539955,78.22303L119.539955,76.055061L119.178627,76.055061L119.178627,75.813362L120.384682,75.813362L120.384682,76.055061zM103.234779,76.055061L102.873451,76.055061L102.873451,77.742073C103.028725,77.946846,103.262276,78.077774,103.517982,78.103401L103.596107,78.103401L103.596107,77.832405L103.8964,77.832405L103.8964,78.495491C103.530533,78.57856,103.15284,78.418602,102.957924,78.09803L102.873451,77.966682L102.873451,78.464729L102.028725,78.464729L102.028725,78.22303L102.390053,78.22303L102.390053,76.055061L102.028725,76.055061L102.028725,75.813362L103.234779,75.813362L103.234779,76.055061zM97.714272,75.762093L97.893471,75.790413C98.02095,75.817589,98.145905,75.855484,98.267006,75.903694L98.267006,76.238167L98.101479,76.171272C97.771942,76.029251,97.394165,76.056381,97.088295,76.244026C96.837601,76.475182,96.706253,76.807762,96.731361,77.147835C96.710442,77.499733,96.834137,77.84523,97.073647,78.103889C97.323181,78.33287,97.701782,78.346123,97.966713,78.135139L97.99601,77.803108L98.267006,77.803108L98.267006,78.406136C97.924438,78.512573,97.56308,78.545364,97.206947,78.502327C96.688499,78.399925,96.296906,77.972122,96.240639,77.446663C96.173019,77.06945,96.237335,76.680473,96.422768,76.3451C96.660088,75.959785,97.087341,75.732986,97.539467,75.752327L97.714272,75.762093zM109.449104,61.651581L109.581917,61.688202L109.556526,61.895233L109.504768,61.884979C109.427055,61.865425,109.346664,61.906036,109.316292,61.980194C109.278618,62.074253,109.261955,62.175407,109.267464,62.276581L109.267464,63.222382C109.283623,63.376389,109.237679,63.531055,109.137665,63.649242C109.037659,63.767426,108.892723,63.838326,108.738167,63.84787C108.42334,63.874359,108.107239,63.816566,107.822151,63.680389L107.822151,63.279999L108.038948,63.279999L108.062386,63.492889C108.234161,63.674458,108.506363,63.718857,108.726936,63.601288C108.838562,63.50074,108.895607,63.353325,108.880745,63.203827L108.880745,62.942108L108.800667,62.942108C108.505493,62.960564,108.210701,62.900059,107.946663,62.766815C107.690392,62.605362,107.588913,62.282097,107.706917,62.003143C107.838203,61.71883,108.157616,61.573135,108.458382,61.66037C108.65316,61.721176,108.828964,61.830925,108.969124,61.979218L109.020393,61.830292C109.099068,61.672646,109.281754,61.596489,109.449104,61.651581zM108.371956,61.911835C108.250526,61.939758,108.149414,62.023392,108.09922,62.137436C108.049026,62.25148,108.055649,62.38253,108.117073,62.490936C108.233101,62.653061,108.421684,62.746803,108.620979,62.741425C108.70742,62.747639,108.79409,62.750084,108.880745,62.748749L108.880745,62.084686C108.744202,61.956413,108.55838,61.893284,108.371956,61.911835zM110.377357,76.055061L110.016029,76.055061L110.016029,78.193733L110.67765,78.193733L110.67765,78.464729L110.016029,78.464729C109.997253,78.692802,110.004463,78.922363,110.037514,79.148811C110.035172,79.328537,110.17453,79.478867,110.35392,79.49012C110.477699,79.484879,110.594261,79.430382,110.67765,79.338753L110.67765,79.128792L110.977943,79.128792L110.977943,79.550667C110.635651,79.779938,110.192047,79.79097,109.838783,79.578987C109.647911,79.393867,109.541595,79.138321,109.544838,78.872444C109.534866,78.736778,109.530792,78.600746,109.532631,78.464729L109.110268,78.464729L109.110268,78.193733L109.532631,78.193733L109.532631,76.055061L109.171303,76.055061L109.171303,75.813362L110.377357,75.813362L110.377357,76.055061zM117.054115,75.761116C117.393814,75.812729,117.691986,76.014923,117.865639,76.311409L117.865639,75.813362L118.710365,75.813362L118.710365,76.055061L118.349037,76.055061L118.349037,78.464729L117.504311,78.464729L117.504311,78.22303L117.865639,78.22303L117.865639,76.536018C117.69455,76.318092,117.449257,76.170151,117.176674,76.120491C117.026207,76.079842,116.865089,76.124664,116.75724,76.23719C116.683479,76.369835,116.651161,76.521553,116.664467,76.672737L116.664467,78.464729L115.81974,78.464729L115.81974,78.22303L116.181068,78.22303L116.181068,76.597054C116.155785,76.322495,116.269043,76.052917,116.482826,75.878792C116.651123,75.767776,116.855644,75.725655,117.054115,75.761116zM119.577034,61.881561L119.287971,61.881561L119.287971,63.231171C119.443741,63.422859,119.66964,63.54451,119.915413,63.569061C120.0513,63.575657,120.169014,63.475281,120.183968,63.340057L120.202034,63.162323L120.202034,61.881561L119.912971,61.881561L119.912971,61.688202L120.877815,61.688202L120.877815,61.881561L120.588753,61.881561L120.588753,63.231171C120.744415,63.422733,120.970108,63.544365,121.215706,63.569061C121.351662,63.575546,121.469437,63.4753,121.484749,63.340057L121.502815,63.162323L121.502815,61.881561L121.213753,61.881561L121.213753,61.688202L122.178596,61.688202L122.178596,61.881561L121.889534,61.881561L121.889534,63.232147C121.90831,63.39323,121.857597,63.555134,121.748596,63.67519C121.639587,63.795246,121.483315,63.861309,121.321175,63.858124C121.108055,63.852249,120.906113,63.761562,120.760139,63.606171L120.588753,63.410858L120.563362,63.410858L120.537971,63.51535C120.452789,63.771095,120.183853,63.917728,119.922737,63.8508C119.745827,63.821735,119.583145,63.735855,119.459358,63.606171L119.287971,63.410858L119.287971,63.809296L118.61219,63.809296L118.61219,63.615936L118.901253,63.615936L118.901253,61.881561L118.61219,61.881561L118.61219,61.688202L119.577034,61.688202L119.577034,61.881561zM104.73719,61.881561L104.448128,61.881561L104.448128,63.231171C104.603859,63.422909,104.829773,63.544567,105.075569,63.569061C105.211456,63.575657,105.32917,63.475281,105.344124,63.340057L105.36219,63.162323L105.36219,61.881561L105.073128,61.881561L105.073128,61.688202L106.037971,61.688202L106.037971,61.881561L105.748909,61.881561L105.748909,63.231171C105.904572,63.422733,106.130264,63.544365,106.375862,63.569061C106.511818,63.57555,106.629593,63.4753,106.644905,63.340057L106.662971,63.162323L106.662971,61.881561L106.373909,61.881561L106.373909,61.688202L107.338753,61.688202L107.338753,61.881561L107.04969,61.881561L107.04969,63.232147C107.068428,63.393223,107.017715,63.555115,106.908722,63.675163C106.799721,63.795208,106.643463,63.861267,106.481331,63.858124C106.268211,63.852249,106.066269,63.761562,105.920296,63.606171L105.748909,63.410858L105.723518,63.410858L105.697639,63.51535C105.612831,63.771164,105.34391,63.917904,105.082893,63.8508C104.90596,63.821785,104.743279,63.735897,104.619514,63.606171L104.448128,63.410858L104.448128,63.809296L103.772346,63.809296L103.772346,63.615936L104.061409,63.615936L104.061409,61.881561L103.772346,61.881561L103.772346,61.688202L104.73719,61.688202L104.73719,61.881561zM107.87394,75.764046C108.095543,75.792892,108.312584,75.849655,108.519936,75.932991L108.519936,76.294319L108.329506,76.202522C108.032845,76.06147,107.691673,76.045624,107.383217,76.158577C107.094162,76.321449,106.909309,76.621117,106.893471,76.952522L106.879311,77.200081L108.519936,77.200081C108.536346,77.483818,108.487236,77.767487,108.376381,78.029182C108.223122,78.349968,107.890976,78.546242,107.536049,78.525764C107.032829,78.527855,106.589287,78.195045,106.4506,77.711311C106.30162,77.263031,106.346214,76.772812,106.573647,76.358772C106.843254,75.911911,107.359566,75.675758,107.87394,75.764046zM106.911049,77.44178C106.911568,77.665001,106.972298,77.883965,107.08683,78.075569C107.233032,78.277916,107.503136,78.346214,107.727943,78.237679C107.90451,78.110298,108.006828,77.904564,108.001869,77.686897C108.007935,77.605339,108.010544,77.52356,108.009682,77.44178L106.911049,77.44178zM99.30555,61.625702L99.475471,61.655975C99.591454,61.68325,99.703987,61.723545,99.810921,61.776093L99.748421,61.949921L99.595589,61.887421C99.105453,61.688847,98.543297,61.839497,98.218147,62.256561C97.982635,62.6689,97.988792,63.175755,98.234261,63.582245C98.550575,64.185951,99.20977,64.52861,99.885628,64.440643C100.395386,64.36512,100.772308,63.926178,100.769905,63.410858C100.784546,63.06707,100.623421,62.739479,100.342171,62.541229C100.235046,62.459438,100.090492,62.445969,99.9701,62.506561C99.922287,62.58707,99.914703,62.685291,99.949593,62.772186L100.173225,63.904999L99.997444,63.904999L99.881233,63.937225C99.598053,64.028717,99.287308,63.959118,99.070198,63.755585C98.738289,63.473274,98.560883,63.04953,98.592659,62.61496C98.596481,62.422924,98.752647,62.268272,98.94471,62.266327C99.182663,62.294949,99.393784,62.432926,99.515511,62.639374C99.584595,62.731396,99.6474,62.827969,99.703499,62.928436L99.728889,62.928436L99.658577,62.692108C99.633911,62.609001,99.627747,62.521503,99.640511,62.43576C99.660828,62.351097,99.732574,62.288555,99.819221,62.279999C100.219864,62.219009,100.614586,62.422878,100.796761,62.784882C101.132614,63.357365,100.958824,64.092743,100.402229,64.454315C99.798386,64.775658,99.059082,64.688301,98.546761,64.235077C97.9608,63.803154,97.716492,63.04446,97.940315,62.351776C98.096855,61.966362,98.447182,61.693848,98.859261,61.636932C99.006866,61.613377,99.156952,61.6096,99.30555,61.625702zM99.017952,62.511932C98.939552,62.540962,98.887878,62.616329,98.889046,62.699921C98.827873,63.08289,98.977005,63.469147,99.279671,63.711639C99.457199,63.805565,99.670647,63.801132,99.844124,63.699921L99.762093,63.289764C99.63382,63.008602,99.444496,62.759571,99.207893,62.56076C99.155937,62.515358,99.085365,62.497215,99.017952,62.511932zM117.373421,61.657928C117.793167,61.732929,118.110107,62.081142,118.145393,62.506073C118.198158,62.810402,118.150696,63.123619,118.010139,63.398651C117.831902,63.70023,117.500549,63.877392,117.150764,63.858124C116.641037,63.883072,116.202011,63.50116,116.156136,62.992889C116.103142,62.688034,116.150787,62.374233,116.291878,62.098846C116.470146,61.797531,116.801178,61.620441,117.150764,61.639374L117.373421,61.657928zM117.024788,61.846893L116.911507,61.895721C116.703087,62.054501,116.57473,62.296238,116.559944,62.557831C116.497971,62.899834,116.589195,63.251854,116.809456,63.520721C116.960091,63.679302,117.200172,63.712902,117.388557,63.601776C117.645454,63.396633,117.782127,63.076153,117.752327,62.748749C117.782379,62.42131,117.64566,62.100704,117.388557,61.895721C117.278687,61.831474,117.147713,61.813896,117.024788,61.846893zM123.706459,75.767952L123.872475,75.813362L123.840736,76.072151L123.775795,76.059456C123.678757,76.03569,123.578743,76.086327,123.540443,76.178596C123.493271,76.296021,123.472435,76.422363,123.479408,76.548714L123.479408,77.731819C123.51033,78.005676,123.378029,78.272957,123.141518,78.414436C122.831161,78.543442,122.486572,78.563225,122.16349,78.470589C121.995316,78.429504,121.8311,78.373619,121.672768,78.303596L121.672768,77.803108L121.943764,77.803108L121.973061,78.069221C122.18782,78.295982,122.527679,78.351723,122.803627,78.205452C122.943733,78.079849,123.015175,77.895081,122.99601,77.707893L122.99601,77.380745L122.895912,77.380745C122.527008,77.40403,122.158539,77.328514,121.828529,77.161995C121.508011,76.96032,121.381065,76.556122,121.528725,76.207405C121.715965,75.817863,122.175537,75.644127,122.573647,75.812386C122.774414,75.89608,122.955719,76.020226,123.106361,76.177132L123.170815,75.991585C123.269043,75.794502,123.497253,75.699226,123.706459,75.767952zM122.359779,76.093147L122.270912,76.118538C122.04808,76.217819,121.932137,76.46595,121.99894,76.700569C122.06517,76.922218,122.258888,77.081398,122.489174,77.103401C122.656609,77.131424,122.826302,77.143356,122.99601,77.139046L122.99601,76.308968C122.825325,76.148491,122.59288,76.069633,122.359779,76.093147zM102.563362,60.87912C102.68924,60.892376,102.812569,60.923618,102.929573,60.971893C103.225243,61.065926,103.40403,61.366985,103.3451,61.6716C103.296715,61.869274,103.116882,62.006184,102.91346,62.000214C102.630234,62.023727,102.346092,62.034966,102.061897,62.033905L101.987679,62.058807C101.933884,62.090412,101.912994,62.157524,101.939339,62.214081C101.974052,62.285675,102.027733,62.346275,102.094612,62.389374L102.200081,62.368866C102.609772,62.288185,103.009033,62.549877,103.098518,62.957733C103.14373,63.192413,103.082161,63.435093,102.93055,63.619843L103.348518,63.545624L103.469612,63.834686L102.725471,63.776093L102.633186,63.811737C102.280128,63.93998,101.88504,63.833008,101.644905,63.544159C101.433907,63.227463,101.484428,62.804241,101.764046,62.546112C101.821243,62.499294,101.884476,62.460373,101.952034,62.430389L101.791389,62.337616C101.675789,62.285553,101.596222,62.17561,101.582893,62.04953C101.590759,61.919472,101.678879,61.807957,101.803596,61.770233L101.617561,61.673553C101.478844,61.610382,101.386368,61.475151,101.377815,61.322968C101.390709,61.169098,101.495888,61.038399,101.64344,60.992889C101.93615,60.880005,102.251976,60.840946,102.563362,60.87912zM102.195198,61.064178C102.041611,61.053013,101.892197,61.119911,101.798225,61.241913C101.733963,61.38147,101.76358,61.546093,101.872444,61.65451L101.957893,61.73703C102.222168,61.755024,102.487503,61.749794,102.750862,61.721405C102.812363,61.719208,102.871002,61.693821,102.913673,61.649506C102.956345,61.60519,102.9795,61.545639,102.979378,61.4841C102.961403,61.276581,102.798805,61.110706,102.591682,61.088593C102.461487,61.060616,102.327843,61.052387,102.195198,61.064178zM102.224495,62.540741C102.032448,62.590794,101.90229,62.769867,101.913948,62.967987C101.866119,63.192947,101.92128,63.427551,102.064339,63.607635C102.212479,63.718536,102.415337,63.719326,102.564339,63.609589C102.686668,63.476139,102.745972,63.296997,102.727425,63.116913C102.751122,62.934391,102.692963,62.750271,102.568733,62.614471C102.471008,62.539185,102.344482,62.512089,102.224495,62.540741zM100.512123,75.775764L100.759193,75.845589C101.159996,76.021606,101.434387,76.400146,101.476967,76.835823C101.542786,77.216377,101.483505,77.608002,101.308022,77.952034C101.084892,78.328865,100.670578,78.550049,100.233315,78.525764C99.596184,78.557487,99.04718,78.080078,98.99015,77.44471C98.924049,77.063469,98.983505,76.671089,99.159584,76.326546C99.383095,75.950562,99.796509,75.729469,100.233315,75.752327L100.512123,75.775764zM100.076088,76.012093C99.792725,76.129303,99.588928,76.382172,99.534584,76.683968C99.418701,77.114571,99.475815,77.57325,99.693764,77.962288C99.827415,78.211617,100.114731,78.337402,100.388588,78.266487C100.672478,78.149498,100.876968,77.896683,100.932045,77.594612C101.048599,77.163849,100.991272,76.704689,100.772377,76.315804C100.637741,76.066734,100.350227,75.94133,100.076088,76.012093zM114.398842,74.80262C114.695915,74.822098,114.977272,74.943123,115.195717,75.145393C115.430634,75.384438,115.458466,75.757431,115.261635,76.028694C115.073448,76.171898,114.839935,76.242622,114.60392,76.227913C114.369827,76.237045,114.135521,76.239647,113.901283,76.235725L113.772377,76.245979C113.730042,76.24485,113.688515,76.259506,113.657387,76.28817C113.626251,76.316841,113.608231,76.35701,113.605873,76.3993C113.625824,76.523247,113.702621,76.630753,113.813393,76.689827L113.945229,76.664436C114.321014,76.601685,114.700531,76.753677,114.929115,77.058479C115.16275,77.422119,115.134109,77.895111,114.858315,78.227913L115.380775,78.135139L115.532143,78.496468L114.601967,78.423225L114.486732,78.468147C114.10569,78.599556,113.683868,78.525375,113.370522,78.271858C113.027138,77.91629,113.000435,77.362427,113.308022,76.975471C113.399818,76.875694,113.511169,76.795921,113.63517,76.741096L113.434486,76.625862C113.314423,76.562973,113.223503,76.455757,113.181068,76.327034C113.154289,76.193291,113.213249,76.056885,113.329018,75.984749L113.449623,75.915901L113.325111,75.857307C113.136169,75.784248,112.989662,75.630569,112.925697,75.438362C112.893173,75.277863,112.964645,75.114029,113.104408,75.028694C113.415169,74.850655,113.770798,74.767044,114.128334,74.787971L114.398842,74.80262zM113.939369,75.033577C113.779274,75.033623,113.62381,75.087448,113.497963,75.186409C113.379578,75.319092,113.363831,75.513977,113.459389,75.663948C113.506775,75.744896,113.568878,75.816269,113.642494,75.874397C113.938492,75.884903,114.23481,75.88327,114.530678,75.869514C114.696609,75.887047,114.853569,75.789642,114.911537,75.633186C114.943939,75.449684,114.857056,75.265739,114.69474,75.174202C114.464172,75.048393,114.199768,74.999168,113.939369,75.033577zM113.975502,76.87928L113.870522,76.912971C113.693718,77.017624,113.585983,77.208015,113.587318,77.41346C113.544708,77.659515,113.586189,77.913048,113.704994,78.132698C113.848862,78.316269,114.101563,78.3741,114.310951,78.27137C114.489197,78.166405,114.597908,77.9748,114.596596,77.767952C114.639412,77.52269,114.597359,77.269836,114.477455,77.051643C114.359749,76.898697,114.162338,76.83091,113.975502,76.87928zM101.622055,67.674477L101.637009,67.690857L101.672516,67.714005L101.783958,67.768288L101.911446,67.827599L102.062439,67.907768L102.409355,68.114578L102.773506,68.356407L102.946045,68.480362L103.103691,68.600952L103.201546,68.683685L103.309067,68.783302L103.534592,69.013229L103.743248,69.250854L103.829666,69.360092L103.897987,69.456299L104.015602,69.650177L104.117371,69.847252L104.201912,70.043007L104.26786,70.23291L104.31385,70.41243L104.338501,70.577049L104.340439,70.722237L104.332474,70.786125L104.318306,70.843468L104.272835,70.956963L104.245949,71.002266L104.214806,71.041557L104.178299,71.076065L104.1353,71.106987L104.025398,71.162987L103.927422,71.202385L103.835655,71.233353L103.744286,71.256668L103.647491,71.273071L103.539452,71.283325L103.414345,71.288193L103.089668,71.284775L102.895576,71.275017L102.716148,71.256287L102.548073,71.227631L102.388016,71.188095L102.232651,71.136711L102.078659,71.072525L101.922707,70.994583L101.761475,70.901917L101.603958,70.808456L101.50827,70.758949L101.479385,70.748878L101.460876,70.747643L101.451057,70.754517L101.448242,70.768776L101.455025,70.786354L101.475304,70.809723L101.557014,70.874268L101.694717,70.963379L101.889778,71.077988L102.111992,71.19796L102.34201,71.307709L102.598282,71.415466L102.899231,71.529503L103.146324,71.622955L103.392227,71.725037L104.056206,72.031326L104.218948,72.101311L104.434593,72.182739L104.978531,72.365364L105.595924,72.550079L105.903381,72.634117L106.194672,72.707748L106.415062,72.76078L106.339569,73.005287L106.290764,73.174095L106.250076,73.339012L106.217201,73.502434L106.191818,73.66674L106.173615,73.834335L106.162277,74.007614L106.157478,74.188965L106.15892,74.380783L106.17186,74.685608L106.192131,74.937126L106.224571,75.119049L106.275528,75.30275L106.33757,75.465446L106.370422,75.531799L106.403259,75.584351L106.442299,75.633369L106.463669,75.646118L106.493469,75.651329L106.600014,75.640068L106.805199,75.601425L107.001198,75.55719L107.199989,75.499451L107.401016,75.428452L107.603714,75.344429L107.807526,75.247643L108.011909,75.138336L108.216286,75.016769L108.420113,74.883171L108.612976,74.756371L108.802116,74.644211L108.993568,74.544182L109.193352,74.453735L109.407486,74.370354L109.641998,74.291504L109.902908,74.214661L110.196236,74.137283L110.465904,74.076141L110.703827,74.037125L110.916512,74.019409L111.110474,74.022171L111.340462,74.023872L111.66581,74.010193L112.013824,73.985306L112.311806,73.953362L112.464279,73.928635L112.621933,73.895782L112.782486,73.855515L112.94371,73.808525L113.103333,73.755524L113.259094,73.697212L113.408752,73.634285L113.550049,73.567459L113.647217,73.510941L113.792618,73.416847L114.154045,73.165253L114.452377,72.953011L114.675507,72.805717L114.85955,72.701004L115.040649,72.616524L115.215462,72.546844L115.371017,72.497559L115.528847,72.462906L115.710487,72.437111L116.149361,72.379005L116.630516,72.304993L117.045044,72.232849L117.284042,72.180351L117.446358,72.140663L117.672913,72.10038L117.922485,72.065971L118.153809,72.043915L118.282852,72.032356L118.403152,72.015625L118.509239,71.994637L118.595634,71.970306L118.732368,71.911743L118.859344,71.837303L118.959389,71.758553L118.993958,71.721176L119.015358,71.687065L119.021996,71.635605L119.010788,71.560944L118.984657,71.470055L118.946541,71.369904L118.899368,71.267456L118.846085,71.169693L118.789612,71.083572L118.732887,71.016068L118.703323,70.980728L118.686668,70.940315L118.679932,70.882187L118.680115,70.793701L118.675545,70.664063L118.666229,70.607079L118.651352,70.552734L118.602356,70.444176L118.523392,70.322815L118.472366,70.256332L118.420502,70.19915L118.28817,70.086533L118.158951,69.994621L118.00457,69.894836L117.641098,69.68306L117.239334,69.474083L117.037094,69.377792L116.840881,69.290771L116.659264,69.203201L116.509567,69.10891L116.44725,69.059654L116.393593,69.009216L116.348816,68.957756L116.313164,68.905441L116.288979,68.846207L116.289536,68.824158L116.298615,68.807053L116.316277,68.79483L116.34259,68.787415L116.42144,68.786697L116.634727,68.799629L116.858124,68.802856L117.069946,68.796539L117.248543,68.78083L117.474167,68.751152L117.468224,68.572723L117.460258,68.465866L117.443153,68.364548L117.416107,68.266991L117.378311,68.171432L117.328957,68.076111L117.267235,67.97924L117.192345,67.879066L117.103477,67.773819L116.980881,67.647659L116.849655,67.535912L116.709526,67.438385L116.560265,67.354889L116.450775,67.303802L116.336899,67.258492L116.211166,67.217133L116.066132,67.177864L115.688377,67.098282L115.144012,67.005005L114.444298,66.887444L114.192909,66.839935L113.987671,66.795326L113.81398,66.750153L113.657211,66.700958L113.335968,66.576622L113.034904,66.440956L112.747322,66.290726L112.471375,66.12458L112.205215,65.941154L111.947006,65.739098L111.694901,65.517059L111.44706,65.273689L111.201653,65.007629L111.072647,64.868362L111.040482,64.840378L111.033218,64.837517L111.03212,64.842354L111.06176,64.905609L111.125244,65.000328L111.216064,65.118896L111.327705,65.253685L111.587425,65.541458L111.722488,65.679199L111.852341,65.802689L112.086708,66.005943L112.336914,66.209549L112.541328,66.372963L112.671539,66.489281L112.74585,66.576721L112.782547,66.653503L112.794029,66.721062L112.791435,66.751686L112.783142,66.780571L112.749016,66.834213L112.690773,66.884193L112.64473,66.908073L112.581886,66.921913L112.487274,66.927551L112.345932,66.926857L112.183563,66.917046L112.018631,66.894684L111.85569,66.861191L111.699295,66.818001L111.554016,66.766541L111.424385,66.708252L111.31498,66.644547L111.230347,66.576859L111.191742,66.542572L111.155418,66.517792L111.120186,66.501862L111.084846,66.494087L111.016266,66.486572L111.109627,66.560616L111.219444,66.643234L111.333664,66.720688L111.450577,66.792107L111.568504,66.856606L111.685738,66.913322L111.800583,66.961372L111.911331,66.999886L112.016312,67.027985L112.21508,67.067169L112.411171,67.095093L112.608185,67.111748L112.809723,67.117134L113.019402,67.111237L113.240807,67.094063L113.477554,67.065598L113.733246,67.025841L113.896919,67.004036L114.066856,66.993004L114.241127,66.992584L114.417786,67.002609L114.594902,67.022919L114.770531,67.053337L114.942734,67.093704L115.109581,67.143852L115.230133,67.187729L115.349113,67.237541L115.579475,67.3526L115.794861,67.484299L115.989426,67.627907L116.157379,67.778702L116.229546,67.855316L116.292877,67.931961L116.346634,68.008034L116.390106,68.082947L116.422546,68.156113L116.443245,68.226944L116.451515,68.31601L116.442307,68.405762L116.417961,68.484398L116.400848,68.515862L116.380836,68.540131L116.340126,68.572777L116.29023,68.602295L116.230621,68.62886L116.160782,68.652611L115.988266,68.692314L115.768478,68.722664L114.811195,68.829308L114.350342,68.875938L114.196243,68.887146L114.123138,68.887711L114.019745,68.851593L113.856552,68.783073L113.743011,68.733551L113.685425,68.713242L113.67337,68.713234L113.670204,68.719551L113.683739,68.749855L113.714668,68.794006L113.762672,68.849152L113.895836,68.979584L114.055099,69.115524L114.212364,69.231377L114.352257,69.318893L114.49511,69.398361L114.639679,69.469284L114.78476,69.531181L114.929092,69.583557L115.071472,69.625946L115.210648,69.657845L115.345406,69.678772L115.752502,69.734657L116.086845,69.800186L116.228622,69.837021L116.354477,69.876801L116.465149,69.919708L116.561417,69.965919L116.756516,70.06559L116.960167,70.15918L117.182159,70.250938L117.432281,70.345123L117.665634,70.438049L117.864067,70.535004L118.027077,70.635521L118.095146,70.686974L118.154175,70.739136L118.204102,70.791946L118.244873,70.84536L118.276428,70.899307L118.298691,70.953735L118.311607,71.008583L118.315125,71.063789L118.309166,71.119293L118.293686,71.175041L118.275459,71.234009L118.276505,71.270325L118.300629,71.292892L118.351662,71.310654L118.39048,71.32605L118.427544,71.349213L118.461548,71.378441L118.491173,71.412025L118.515114,71.448265L118.532066,71.485443L118.540726,71.521866L118.539764,71.555817L118.523399,71.592369L118.492447,71.622841L118.451927,71.643639L118.40683,71.651161L118.375961,71.648071L118.348534,71.639389L118.324753,71.625343L118.30481,71.606171L118.288902,71.582108L118.277222,71.553398L118.267334,71.482956L118.258125,71.414253L118.247948,71.391533L118.234886,71.379219L118.209724,71.377731L118.164764,71.384308L118.040924,71.41671L117.946335,71.452209L117.867432,71.492783L117.804817,71.537636L117.759064,71.585983L117.730774,71.637039L117.720512,71.690018L117.728882,71.744125L117.756462,71.798584L117.806915,71.849495L117.875076,71.88916L117.936775,71.919189L117.933205,71.926956L117.910568,71.934883L117.845276,71.941742L117.755211,71.935287L117.655807,71.917503L117.562515,71.890366L117.401573,71.80304L117.15358,71.643982L116.891998,71.468605L116.722366,71.364082L116.586655,71.297981L116.426834,71.237869L116.224472,71.173508L116.011612,71.120163L115.79129,71.078506L115.566559,71.049202L115.357635,71.023384L115.165779,70.989662L114.985977,70.947014L114.813202,70.894402L114.676605,70.845062L114.551666,70.793236L114.436371,70.737701L114.328712,70.677238L114.226677,70.610634L114.128265,70.536667L114.031464,70.454124L113.934258,70.361794L113.844666,70.278694L113.816933,70.258911L113.800438,70.253654L113.795074,70.262955L113.800735,70.286819L113.844696,70.378357L113.930634,70.50779L114.047882,70.646454L114.177811,70.774269L114.301773,70.871124L114.503746,70.984612L114.809776,71.136047L115.167183,71.300369L115.523308,71.452507L115.790909,71.564758L115.96022,71.647278L116.019791,71.684013L116.068893,71.721252L116.154533,71.807877L116.200974,71.864716L116.226624,71.908951L116.236938,71.954185L116.237389,72.01403L116.233246,72.060936L116.223869,72.101051L116.208237,72.13546L116.185295,72.165222L116.15403,72.191399L116.113396,72.215057L115.999893,72.259109L115.890175,72.289513L115.775558,72.312271L115.658287,72.327316L115.540588,72.334587L115.424683,72.33403L115.31282,72.325562L115.207214,72.309128L115.110115,72.284668L114.991837,72.251617L114.903328,72.232742L114.836014,72.223961L114.921326,72.309937L114.984573,72.382004L114.998245,72.410492L114.999283,72.437134L114.987221,72.46431L114.961555,72.4944L114.86747,72.572868L114.734505,72.66967L114.602844,72.753365L114.470001,72.825432L114.333488,72.887337L114.245781,72.920609L114.17746,72.936066L114.10778,72.936028L114.016037,72.922806L113.891968,72.893707L113.847107,72.877739L113.822174,72.863419L113.797783,72.815521L113.78286,72.744087L113.777245,72.704865L113.768265,72.678391L113.755066,72.664917L113.736778,72.664726L113.71254,72.678078L113.681511,72.705231L113.595589,72.802032L113.478256,72.938553L113.387245,73.023735L113.343628,73.053177L113.29702,73.07711L113.182037,73.118195L113.043594,73.15123L112.978958,73.158623L112.915169,73.159874L112.783554,73.143745L112.635529,73.10247L112.460678,73.033722L112.303055,72.950111L112.158966,72.849396L112.02475,72.729309L111.919884,72.631615L111.888016,72.607513L111.876358,72.605331L111.929176,72.710167L112.055916,72.927696L112.191071,73.161362L112.264107,73.304993L112.281281,73.399117L112.283875,73.521927L112.273048,73.639847L112.262955,73.686478L112.249947,73.719299L112.231598,73.743889L112.206291,73.766853L112.133682,73.808441L112.0298,73.845093L111.892326,73.877838L111.717819,73.903107L111.52285,73.910385L111.289078,73.899521L110.998161,73.870369L110.801224,73.842026L110.621872,73.804977L110.457848,73.758247L110.3069,73.700851L110.166756,73.631813L110.035164,73.550148L109.909874,73.45488L109.788612,73.345024L109.663109,73.213669L109.569756,73.092224L109.495491,72.961006L109.427246,72.800323L109.375687,72.679474L109.35582,72.642685L109.343559,72.629143L109.330666,72.632271L109.320801,72.64209L109.310028,72.683304L109.310982,72.75576L109.323402,72.862457L109.343002,73.021965L109.353096,73.16745L109.353355,73.301636L109.34343,73.427231L109.322983,73.546967L109.291695,73.663559L109.249207,73.779732L109.195206,73.898201L109.15036,73.980492L109.09552,74.056587L109.011032,74.150459L108.877243,74.286087L108.676903,74.473869L108.481728,74.629601L108.275169,74.765289L108.040672,74.892937L107.877579,74.969162L107.72261,75.029739L107.575348,75.07473L107.435333,75.10421L107.302139,75.11824L107.175331,75.116898L107.054466,75.100258L106.939102,75.068375L106.862625,75.038704L106.802292,75.004913L106.740402,74.95488L106.659256,74.87645L106.579384,74.793808L106.528503,74.730042L106.492653,74.664268L106.457855,74.575645L106.412125,74.422302L106.379021,74.251831L106.358582,74.069489L106.350845,73.880508L106.35585,73.69014L106.373627,73.503609L106.404221,73.326172L106.44767,73.163071L106.493652,73.045914L106.560257,72.904793L106.633575,72.767372L106.699738,72.661301L106.742493,72.613617L106.798492,72.570786L106.866264,72.53331L106.944359,72.501701L107.031303,72.476448L107.125641,72.458076L107.225906,72.447067L107.330643,72.443947L107.462189,72.445152L107.594505,72.588814L107.662971,72.666397L107.709702,72.729271L107.742493,72.789543L107.76918,72.859329L107.808937,73.007446L107.831177,73.159309L107.835556,73.310852L107.821709,73.458008L107.804131,73.552818L107.783447,73.619804L107.752586,73.675842L107.704468,73.737808L107.648514,73.815094L107.643021,73.834747L107.652489,73.841743L107.676918,73.836075L107.716301,73.817741L107.839859,73.743103L107.960289,73.654022L108.06015,73.557739L108.137482,73.456459L108.1903,73.352371L108.232819,73.209152L108.273399,73.014259L108.308762,72.785927L108.335632,72.542419L108.361374,72.328621L108.400459,72.153526L108.458946,71.996506L108.542892,71.836914L108.604195,71.740257L108.665016,71.658623L108.723991,71.593018L108.779747,71.544456L108.830933,71.513939L108.876167,71.50248L108.914093,71.511093L108.943344,71.540779L109.006866,71.621597L109.124817,71.758224L109.294273,71.932243L109.481247,72.09462L109.680168,72.242134L109.885452,72.371567L110.091537,72.479691L110.292831,72.563301L110.389946,72.594902L110.483772,72.619164L110.573616,72.635681L110.658783,72.644066L110.816414,72.652031L110.693977,72.60247L110.557632,72.543373L110.42495,72.478073L110.296219,72.406853L110.171776,72.330032L110.05191,72.24791L109.936951,72.160782L109.827209,72.068954L109.722977,71.972733L109.624588,71.872421L109.532349,71.768311L109.446571,71.660713L109.367561,71.549927L109.295631,71.436256L109.231094,71.320007L109.174271,71.201477L109.125458,71.080971L109.083809,70.961227L109.053581,70.858093L109.034721,70.769608L109.027191,70.693817L109.03093,70.628769L109.045876,70.57251L109.071991,70.523087L109.109222,70.478539L109.159821,70.436714L109.215851,70.407249L109.277649,70.390137L109.345535,70.385391L109.419846,70.393013L109.5009,70.41301L109.589043,70.445396L109.684586,70.490173L109.764786,70.537582L109.861626,70.615227L110.254059,70.9925L110.497452,71.228981L110.707855,71.423897L110.89666,71.58535L111.075233,71.721436L111.254974,71.84024L111.447235,71.949867L111.663422,72.058403L111.914909,72.173958L112.62867,72.49662L112.810921,72.579117L112.93663,72.62989L113.032272,72.658424L113.124313,72.674187L113.205254,72.677864L113.248856,72.671349L113.30217,72.65686L113.46077,72.596642L113.726784,72.482689L114.008446,72.369965L114.117363,72.333191L114.18528,72.31662L114.254829,72.303673L114.323563,72.281799L114.383034,72.25425L114.424782,72.224297L114.364189,72.22364L114.200485,72.240089L114.021828,72.258789L113.88192,72.266083L113.767418,72.262177L113.664978,72.247231L113.614937,72.240654L113.569679,72.243614L113.523483,72.257141L113.470596,72.282265L113.343361,72.340363L113.21196,72.379913L113.076126,72.400917L112.935616,72.403358L112.790176,72.387222L112.639549,72.352493L112.483482,72.299164L112.321724,72.227226L112.144958,72.134598L111.96051,72.028259L111.775253,71.912933L111.596054,71.793381L111.429771,71.674332L111.283272,71.560539L111.163437,71.456741L111.077126,71.367676L111.007057,71.276672L110.947861,71.183876L110.899826,71.090118L110.863228,70.996254L110.838333,70.903122L110.825432,70.811562L110.824799,70.722427L110.8367,70.636543L110.86499,70.544754L110.883827,70.509949L110.906799,70.481537L110.934631,70.458771L110.968079,70.440895L111.054802,70.416832L111.199715,70.404922L111.395828,70.404762L111.596535,70.415146L111.755219,70.434883L112.01545,70.499428L112.359619,70.599365L112.678253,70.701347L112.79377,70.742683L112.861847,70.772018L112.9189,70.80761L112.976166,70.852493L113.109116,70.985504L113.209038,71.105949L113.242165,71.157112L113.264984,71.204636L113.278206,71.250313L113.282516,71.295929L113.27861,71.343277L113.267174,71.394157L113.228058,71.48497L113.163971,71.59185L113.092361,71.688599L113.030685,71.749039L112.914711,71.832886L112.85994,71.880539L112.861633,71.889832L112.880165,71.893936L112.969536,71.876404L113.127266,71.828583L113.281326,71.783798L113.428322,71.757675L113.57515,71.751328L113.728737,71.765846L113.895981,71.80233L114.083817,71.861877L114.299133,71.945587L114.548859,72.054565L114.758331,72.149467L114.679459,72.069664L114.592705,71.999519L114.494606,71.943237L114.364464,71.873749L114.200409,71.772148L114.093323,71.698257L114.006226,71.627266L113.913101,71.535721L113.787964,71.400162L113.493469,71.083908L113.229439,70.817673L113.00959,70.614784L112.920532,70.54126L112.847679,70.488564L112.690247,70.39222L112.531792,70.30761L112.370354,70.23407L112.204002,70.170929L112.030792,70.117516L111.848785,70.073166L111.656036,70.037224L111.450607,70.00901L111.244629,69.981155L111.034401,69.945152L110.824501,69.902191L110.61953,69.853424L110.424065,69.800034L110.242699,69.743187L110.080025,69.684052L109.940628,69.62381L109.785149,69.54203L109.631821,69.447342L109.483719,69.342369L109.343933,69.229774L109.21553,69.112198L109.101601,68.992271L109.005226,68.87265L108.929482,68.755981L108.840141,68.571358L108.748589,68.329643L108.653404,68.026749L108.553207,67.6586L108.467766,67.344009L108.385086,67.090492L108.287697,66.850121L108.158127,66.574966L108.081726,66.423775L108.019791,66.319893L107.948341,66.228188L107.843422,66.113533L107.67878,65.950233L107.612076,65.894203L107.554764,65.854332L107.4505,65.791199L107.510048,65.868614L107.717194,66.127045L107.811554,66.249504L107.895988,66.373627L107.9711,66.500664L108.037476,66.631897L108.095695,66.768585L108.146355,66.912003L108.190041,67.0634L108.227341,67.22406L108.26767,67.47438L108.285294,67.731339L108.280441,68.003662L108.253311,68.300102L108.223732,68.61853L108.212738,68.938126L108.220169,69.257469L108.245872,69.575142L108.289688,69.889725L108.351463,70.199806L108.431046,70.50396L108.528275,70.800766L108.594345,70.974358L108.650368,71.098793L108.703468,71.188019L108.76078,71.255981L108.800156,71.310402L108.810287,71.338089L108.813095,71.364174L108.806763,71.394958L108.779381,71.416794L108.713509,71.437691L108.591675,71.46563L108.351791,71.528572L108.067497,71.618332L107.784637,71.71946L107.549057,71.816536L107.345444,71.920319L107.130867,72.044121L107.007378,72.12394L106.905869,72.199501L106.802025,72.29055L106.671501,72.416824L106.518555,72.56871L106.469696,72.608261L106.429321,72.625L106.389992,72.620049L106.344276,72.59449L106.203888,72.485992L106.053299,72.355736L105.892929,72.193443L105.743477,72.021423L105.62561,71.862007L105.526764,71.700752L105.441711,71.534126L105.354874,71.328407L105.250702,71.049889L105.050964,70.522018L104.864006,70.077446L104.775452,69.886696L104.690254,69.717125L104.608467,69.568871L104.530144,69.442039L104.394699,69.262108L104.221138,69.067581L104.033806,68.883965L103.942581,68.804222L103.85704,68.736763L103.644516,68.586037L103.427292,68.443916L103.205063,68.310249L102.977539,68.184883L102.744431,68.067657L102.505432,67.95842L102.260262,67.857018L102.008614,67.763298L101.806786,67.693977L101.687004,67.658806L101.631393,67.653679L101.622055,67.661095L101.622055,67.674477z"/>
</svg>
